<?xml version="1.0" encoding="utf-8"?>
<!-- Svg Vector Icons : http://www.onlinewebfonts.com/icon -->
<!DOCTYPE svg PUBLIC "-//W3C//DTD SVG 1.1//EN" "http://www.w3.org/Graphics/SVG/1.1/DTD/svg11.dtd">
<svg version="1.1" xmlns="http://www.w3.org/2000/svg" xmlns:xlink="http://www.w3.org/1999/xlink" x="0px" y="0px" viewBox="0 0 1000 1000" enable-background="new 0 0 1000 1000" xml:space="preserve">
<metadata> Svg Vector Icons : http://www.onlinewebfonts.com/icon </metadata>
<g><g transform="translate(0.000000,511.000000) scale(0.100000,-0.100000)"><path fill="#00FF00" d="M5840.1,4981.4c-660.7-129.8-1119.4-539.5-1257.9-1125.2c-23.1-103.9-43.3-320.3-43.3-493.4c0-187.5-11.5-311.6-28.9-311.6c-46.2,0-259.7-204.8-302.9-291.4c-40.4-75-49.1-77.9-213.5-63.5c-178.9,17.3-533.7-46.2-663.6-118.3c-63.5-34.6-92.3-31.7-259.7,34.6c-167.3,66.4-230.8,75-522.2,75c-288.5,0-357.8-11.5-528-77.9C1024.8,2220.3,346.8,933.5,277.6-699.5c-63.5-1520.5,487.6-2963,1358.9-3554.5c346.2-236.6,761.7-340.4,1131-282.7c106.7,17.3,202,37.5,207.7,43.3c5.8,5.8,103.9-40.4,216.4-101c565.5-305.8,1174.3-251,1699.4,150l106.7,83.6l135.6-103.8c499.1-380.8,1119.4-429.9,1676.3-129.8c112.5,60.6,210.6,106.7,216.4,101c5.8-5.8,101-26,213.5-43.3c352-54.8,758.8,43.3,1093.5,259.7c983.8,640.5,1552.2,2331.2,1356,4024.7C9533.1,1074.9,8953.2,2128,8159.7,2526.1c-285.6,141.4-380.8,164.5-721.3,161.6c-271.2,0-346.2-11.5-504.9-72.1c-184.7-75-187.5-75-302.9-23.1c-152.9,69.2-478.9,121.2-646.3,106.7c-129.8-14.4-135.6-11.5-213.5,112.5c-40.4,69.2-115.4,147.1-164.5,176l-86.6,49.1v288.5c0,245.2,11.5,311.6,66.3,418.3c77.9,155.8,219.3,242.3,464.5,285.6c256.8,43.3,277,80.8,277,470.3C6327.7,4992.9,6255.6,5062.2,5840.1,4981.4z M5894.9,4493.8c0-17.3-23.1-37.5-49.1-46.2c-328.9-109.6-562.6-294.3-678-528c-60.6-118.3-66.4-181.8-75-626.1l-11.6-493.4l72.1-54.8c40.4-31.7,112.5-77.9,161.6-103.9c49.1-26,89.5-60.6,89.5-75c0-11.6-51.9-51.9-115.4-89.4c-63.5-34.6-152.9-95.2-199.1-132.7l-80.8-72.1l-204.8,135.6c-121.2,80.8-196.2,150-187.5,170.2c8.7,23.1,83.7,72.1,167.3,109.6c83.7,40.4,158.7,95.2,170.2,121.2c8.7,23.1,17.3,210.6,17.3,409.7c0,553.9,89.4,828,334.7,1044.4C5496.8,4430.3,5894.9,4586.1,5894.9,4493.8z M2773.2,2229c8.7-8.7-49-80.8-126.9-164.5c-369.3-392.4-657.8-969.4-830.9-1661.8c-132.7-530.9-147.1-678-147.1-1448.3c0-770.3,14.4-917.5,147.1-1448.3c135.6-548.2,328.9-986.7,608.8-1390.6l161.6-227.9l-167.3,17.3c-447.2,46.2-911.7,453-1234.8,1081.9c-830.9,1612.8-502,4120,654.9,5008.6c170.2,129.8,354.9,216.4,536.6,248.1C2499.1,2266.5,2744.4,2257.8,2773.2,2229z M7828,2188.6c629-239.5,1168.5-1093.5,1370.4-2166.7c109.6-582.8,103.8-1382-14.4-1956.1c-242.4-1197.3-903-2088.8-1601.3-2161l-167.3-17.3l161.6,227.9c516.4,741.5,770.3,1673.4,770.3,2839c0,741.5-89.4,1321.4-294.3,1904.2c-167.3,473.2-461.6,978.1-715.5,1226.2c-63.5,60.6-115.4,121.2-115.4,132.7C7222.1,2286.7,7623.1,2266.5,7828,2188.6z M4397.5,2136.6c103.9-51.9,210.6-118.3,236.6-147.1c43.3-46.2,37.5-63.5-83.7-236.6c-989.6-1416.6-1004-4056.5-28.9-5553.9l158.7-245.2l-92.3-69.3c-334.7-253.9-764.6-297.2-1142.5-115.4c-213.5,103.9-591.5,484.7-750.1,753c-424.1,718.4-631.8,1609.9-600.1,2590.8C2124-9.9,2305.8,697,2663.6,1337.5c161.6,285.6,556.8,692.4,764.6,790.5c227.9,103.9,274.1,112.5,533.7,106.8C4175.4,2229,4236,2217.4,4397.5,2136.6z M6544.1,2142.4c239.5-112.5,620.3-499.1,793.4-805c233.7-415.4,406.8-920.4,507.8-1474.3c75-406.8,75-1410.8,0-1817.6c-150-816.5-441.4-1485.8-833.8-1907.1c-320.3-343.3-579.9-476-929-478.9c-836.7,0-1578.2,1044.4-1788.8,2518.7c-49.1,354.9-54.8,1087.7-11.5,1454.1C4435,896,5026.5,1937.6,5736.2,2194.3C5955.5,2272.2,6319,2249.2,6544.1,2142.4z"/></g></g>
</svg>